nRows=41
nColumns=19
inDegrees=yes
endheader
time	ground_force_vx	ground_force_vy	ground_force_vz	ground_force_px	ground_force_py	ground_force_pz	1_ground_force_vx	1_ground_force_vy	1_ground_force_vz	1_ground_force_px	1_ground_force_py	1_ground_force_pz	ground_torque_x	ground_torque_y	ground_torque_z	1_ground_torque_x	1_ground_torque_y	1_ground_torque_z
16.898	-75.9478601940372	613.759120354845	-290.485912315671	0.351873073	0	0.599872569	0.0133440600942405	-0.200868175989143	0.0333129860449363	0.300000012	0	0.2050000005	6.208499	19.925806	-6.208499	-0	0.025247	0
16.899	-75.8091955232033	609.111404912662	-288.669592940499	0.352224704	0	0.599994262	0.0149348265990394	-0.201614249522747	0.0312397883458154	0.300000012	0	0.2050000005	6.089147	19.974138	-6.089147	-0	0.024526	0
16.9	-75.6105471119059	604.430632796866	-286.813274395449	0.352589484	0	0.600126789	0.0164592236258432	-0.201933449915184	0.0292320197567643	0.300000012	0	0.2050000005	5.964695	20.010927	-5.964695	-0	0.025969	0
16.901	-75.3487987696821	599.713568872946	-284.915452134654	0.352962976	0	0.600254838	0.0179072721373528	-0.201776896973483	0.0273551677878206	0.300000012	0	0.2050000005	5.843226	20.046272	-5.843226	-0	0.023805	0
16.902	-75.0206518998709	594.956261555128	-282.974320611727	0.353345901	0	0.600377782	0.0192672902761257	-0.20110148907017	0.0256772788958899	0.300000012	0	0.2050000005	5.724739	20.078012	-5.724739	-0	0.01587	0
16.903	-74.6226867056072	590.154184659643	-280.987822799312	0.353707037	0	0.600511427	0.0205255681150641	-0.19987404179997	0.0242660016549302	0.300000012	0	0.2050000005	5.600738	20.090273	-5.600738	-0	0.025247	0
16.904	-74.1514434622638	585.302384716664	-278.953705238492	0.354078443	0	0.600662023	0.0216662676898622	-0.198075555651468	0.0231853361765369	0.300000012	0	0.2050000005	5.46621	20.102541	-5.46621	-0	0.027411	0
16.905	-73.6035228853947	580.395628732536	-276.869577065944	0.354431431	0	0.600807581	0.0226715521880133	-0.195705273548909	0.0224922760346034	0.300000012	0	0.2050000005	5.335416	20.085226	-5.335416	-0	0.02669	0
16.906	-72.9757029795062	575.428547806446	-274.732971012617	0.354796957	0	0.60092748	0.0235219344048583	-0.192784136234176	0.0222335524090535	0.300000012	0	0.2050000005	5.219032	20.070078	-5.219032	-0	0.038232	0
16.907	-72.2650681033434	570.395772493616	-272.541403970693	0.355129179	0	0.601048332	0.024196824937531	-0.189357221956608	0.0224427011165195	0.300000012	0	0.2050000005	5.105118	20.028238	-5.105118	-0	0.031739	0
16.908	-71.4691444842596	565.292056321784	-270.29243444995	0.355400259	0	0.601117581	0.024675254226043	-0.185494779269265	0.0231376681522171	0.300000012	0	0.2050000005	5.021575	19.994333	-5.021575	-154998.8125	0.031739	154998.8125
16.909	-70.5860352130632	560.112384384235	-267.983714147912	0.355662079	0	0.601151347	0.0249367378357642	-0.181291536553612	0.0243191449393409	0.300000012	0	0.2050000005	4.961954	19.947449	-4.961954	-0	0.033182	0
16.91	-69.6145469934342	554.852064450854	-265.613030981308	0.355900397	0	0.601279009	0.0249622494014776	-0.176864101704309	0.0259697785257042	0.300000012	0	0.2050000005	4.843814	19.858719	-4.843814	-0	0.012263	0
16.911	-68.5543007167987	549.50679857792	-263.178341286597	0.35608979	0	0.60131594	0.0247352588599794	-0.172346443943043	0.0280543354825242	0.300000012	0	0.2050000005	4.775224	19.833475	-4.775224	-0	0.054823	0
16.912	-67.4058183458609	544.072733784641	-260.677789483456	0.3563374	0	0.601362554	0.0242427844391442	-0.167883659403564	0.0305208175019351	0.300000012	0	0.2050000005	4.703018	19.717337	-4.703018	-0	0.005771	0
16.913	-66.1705796183208	538.546491023015	-258.109714266836	0.356447992	0	0.601405986	0.0234763963769837	-0.16362443312498	0.0333024439156535	0.300000012	0	0.2050000005	4.632875	19.631496	-4.632875	1.066575	0.020919	-1.066575
16.914	-64.8510436626293	532.92517240704	-255.472641285184	0.356549442	0	0.60143714	0.0224331013412285	-0.159712784128474	0.0363203473005369	0.300000012	0	0.2050000005	4.573306	19.545654	-4.573306	0.023371	0.088005	-0.023371
16.915	-63.4506326276851	527.206347479505	-252.76526319258	0.35664664	0	0.601551834	0.0211160331604566	-0.156279780585037	0.0394867862902467	0.300000012	0	0.2050000005	4.459945	19.395617	-4.459945	-27884240	0.020198	27884240
16.916	-61.9736767030396	521.388020151573	-249.986408844865	0.356749315	0	0.601597679	0.0195348817932479	-0.153435916697576	0.0427086693749944	0.300000012	0	0.2050000005	4.381345	19.269382	-4.381345	-0	0.016591	0
16.917	-60.4253222584124	515.468578806092	-247.135004167042	0.356931796	0	0.601675799	0.0177060102521072	-0.151264753805452	0.0458911989823164	0.300000012	0	0.2050000005	4.292572	19.096977	-4.292572	-0	0.018034	0
16.918	-58.8114070745811	509.446732849755	-244.21002779287	0.35699867	0	0.601742564	0.0156522364846146	-0.149818270597689	0.0489414737829653	0.300000012	0	0.2050000005	4.207961	18.943333	-4.207961	-504.903198	0.012263	504.903198
16.919	-57.1383086049503	503.321439666269	-241.210464933411	0.357010271	0	0.601812438	0.0134022886136527	-0.149114179148941	0.051771915884747	0.300000012	0	0.2050000005	4.12348	18.804111	-4.12348	-0	0.059872	0
16.92	-55.4127727636174	497.091826402396	-238.135263057957	0.35707581	0	0.601924094	0.0109899710262029	-0.149135281537515	0.05430340998805	0.300000012	0	0.2050000005	4.011613	18.622334	-4.011613	-0	0.006492	0
16.921	-53.6417317855954	490.757111265823	-234.983292877236	0.357146658	0	0.601924736	0.00845310085025166	-0.149830791370286	0.0564680518086998	0.300000012	0	0.2050000005	3.95785	18.435503	-3.95785	-765212.6875	0.016591	765212.6875
16.922	-51.8321201930579	484.316529003419	-231.753317827686	0.357196417	0	0.601966777	0.0058322876277978	-0.15111943586056	0.0582114069029615	0.300000012	0	0.2050000005	3.889582	18.266705	-3.889582	0.108317	0.070692	-0.108317
16.923	-49.9906978145839	477.769264958272	-228.443974798274	0.357223381	0	0.602063674	0.00316963409398249	-0.152894084408526	0.0594941853381946	0.300000012	0	0.2050000005	3.790856	18.069059	-3.790856	-0	0.014427	0
16.924	-48.1238881700153	471.114401593929	-225.053768253034	0.357241681	0	0.602092339	0.000507434398882477	-0.155027608518082	0.0602932490398609	0.300000012	0	0.2050000005	3.720835	17.854816	-3.720835	-0	0.016591	0
16.925	-46.2376394175723	464.350880664151	-221.58107921957	0.357366826	0	0.602137068	-0.00211306088660289	-0.157379653599926	0.0606018906826007	0.300000012	0	0.2050000005	3.646614	17.634806	-3.646614	-0	0.034625	0
16.926	-44.3373135600159	457.477483350608	-218.024189872457	0.3574151	0	0.602168066	-0.00465275534383812	-0.159803987193633	0.0604293556677842	0.300000012	0	0.2050000005	3.580686	17.38522	-3.580686	-131252728	0.005771	131252728
16.927	-42.4276078424884	450.492829752194	-214.381323675842	0.357440824	0	0.602180936	-0.00707565113561777	-0.162156076101486	0.0597996199006866	0.300000012	0	0.2050000005	3.522207	17.176746	-3.522207	-0	0.044724	0
16.928	-40.5125103760614	443.395398153291	-210.650700294081	0.357545356	0	0.60221237	-0.00934960472910067	-0.164300535508042	0.0587494830448744	0.300000012	0	0.2050000005	3.452011	16.92716	-3.452011	-0	0.028854	0
16.929	-38.5952901166299	436.183563586441	-206.830603762536	0.357581584	0	0.602176386	-0.0114468917056527	-0.166118086826064	0.0573260866509894	0.300000012	0	0.2050000005	3.412232	16.652328	-3.412232	-1925246.125	0.008656	1925246.125
16.93	-36.6785195363152	428.855654390534	-202.919461759211	0.357612247	0	0.602164462	-0.0133445968334075	-0.167511660448403	0.0555840148511468	0.300000012	0	0.2050000005	3.361476	16.398415	-3.361476	-0	0.049052	0
16.931	-34.7641267432934	421.410024787715	-198.915933256622	0.357665594	0	0.602179628	-0.0150248585277558	-0.168411290547121	0.0535821762460712	0.300000012	0	0.2050000005	3.297852	16.120695	-3.297852	-0	0.028133	0
16.932	-32.8534725121929	413.845140982688	-194.819001385851	0.357731575	0	0.602163634	-0.0164750018451321	-0.168777479962085	0.0513806919603977	0.300000012	0	0.2050000005	3.244819	15.826384	-3.244819	-0	0.013706	0
16.933	-30.9474467317725	406.159677932164	-190.62806803403	0.357775089	0	0.6021172	-0.0176875907033444	-0.168602772841661	0.0490380197842869	0.300000012	0	0.2050000005	3.204199	15.547943	-3.204199	-0	0.01587	0
16.934	-29.0465781848989	398.352623730724	-186.343046542402	0.357933499	0	0.60205426	-0.0186604198420556	-0.167911366470392	0.0466085239099884	0.300000012	0	0.2050000005	3.168597	15.252913	-3.168597	-0	0.015148	0
16.935	-27.151151349314	390.423388492701	-181.964448888694	0.357944532	0	0.601968986	-0.0193964537690082	-0.166756720099525	0.0441406549111569	0.300000012	0	0.2050000005	3.141485	14.947782	-3.141485	-0	0.028854	0
16.936	-25.261324026559	382.371914651882	-177.493463929283	0.357950681	0	0.601889965	-0.0199037079673164	-0.165217267589936	0.0416758412614699	0.300000012	0	0.2050000005	3.106435	14.624618	-3.106435	-0	0.024526	0
16.937	-23.3772400334878	374.198785723137	-172.932023636736	0.358053713	0	0.60179945	-0.0201950604458864	-0.163390495695318	0.0392481211537447	0.300000012	0	0.2050000005	3.073078	14.293518	-3.073078	-0	0.018034	0
16.938	-21.4991318757593	365.905330744513	-168.282854778078	0.358099331	0	0.60166628	-0.0202879805021642	-0.161385791879433	0.0368844717528782	0.300000012	0	0.2050000005	3.052948	13.955929	-3.052948	-0	0.025247	0
